Vincere [BDRip-720p-Mkv-Ita-Dts-Sub-Eng][Nautilus-BT]





General
Complete name                    : C:\Vincere [BDRip-720p-Ita-Dts-Sub-Eng-Chapters][RiP By MaX].mkv
Format                           : Matroska
File size                        : 4.37 GiB
Duration                         : 2h 4mn
Overall bit rate                 : 5 023 Kbps
Encoded date                     : UTC 2010-12-07 11:07:00
Writing application              : mkvmerge v4.4.0 ('Die Wiederkehr') built on Oct 31 2010 21:52:48
Writing library                  : libebml v1.0.0 + libmatroska v1.0.0

Video
ID                               : 1
Format                           : AVC
Format/Info                      : Advanced Video Codec
Format profile                   : High@L4.1
Format settings, CABAC           : Yes
Format settings, ReFrames        : 5 frames
Muxing mode                      : Container profile=Unknown@4.1
Codec ID                         : V_MPEG4/ISO/AVC
Duration                         : 2h 4mn
Bit rate                         : 4 273 Kbps
Width                            : 1 280 pixels
Height                           : 686 pixels
Display aspect ratio             : 1.866
Frame rate                       : 23.976 fps
Color space                      : YUV
Chroma subsampling               : 4:2:0
Bit depth                        : 8 bits
Scan type                        : Progressive
Bits/(Pixel*Frame)               : 0.203
Stream size                      : 3.63 GiB (83%)
Title                            : Vincere [BDRip 720p][RiP By MaX]
Writing library                  : x264 core 110 r1804 e89c4cf
Encoding settings                : cabac=1 / ref=5 / deblock=1:1:0 / analyse=0x3:0x133 / me=hex / subme=7 / psy=1 / psy_rd=1.00:0.00 / mixed_ref=1 / me_range=16 / chroma_me=1 / trellis=1 / 8x8dct=1 / cqm=0 / deadzone=21,11 / fast_pskip=0 / chroma_qp_offset=-2 / threads=6 / sliced_threads=0 / nr=0 / decimate=1 / interlaced=0 / constrained_intra=0 / bframes=3 / b_pyramid=2 / b_adapt=2 / b_bias=0 / direct=3 / weightb=1 / open_gop=0 / weightp=1 / keyint=240 / keyint_min=23 / scenecut=40 / intra_refresh=0 / rc_lookahead=40 / rc=2pass / mbtree=1 / bitrate=4273 / ratetol=1.0 / qcomp=0.60 / qpmin=10 / qpmax=51 / qpstep=4 / cplxblur=20.0 / qblur=0.5 / ip_ratio=1.40 / aq=1:1.00
Language                         : Italian

Audio
ID                               : 2
Format                           : DTS
Format/Info                      : Digital Theater Systems
Codec ID                         : A_DTS
Duration                         : 2h 4mn
Bit rate mode                    : Constant
Bit rate                         : 755 Kbps
Channel(s)                       : 6 channels
Channel positions                : Front: L C R, Side: L R, LFE
Sampling rate                    : 48.0 KHz
Bit depth                        : 24 bits
Stream size                      : 672 MiB (15%)
Title                            : Ita Dts 5.1
Language                         : Italian

Text
ID                               : 3
Format                           : VobSub
Codec ID                         : S_VOBSUB
Codec ID/Info                    : The same subtitle format used on DVDs
Title                            : Sub Eng

Menu
00:00:00.000                     : :01
00:13:58.671                     : :02
00:20:54.253                     : :03
00:27:27.062                     : :04
00:36:12.587                     : :05
00:45:03.701                     : :06
00:54:32.269                     : :07
01:05:58.371                     : :08
01:15:08.587                     : :09
01:25:26.121                     : :10
01:32:13.778                     : :11
01:36:47.468                     : :12
01:47:40.079                     : :13
01:54:52.094                     : :14
